# xmcd CD database file
#
# Track frame offsets:
#	150
#	14700
#	33648
#	50139
#	73017
#	85171
#	100102
#	117177
#	131033
#	147003
#	165735
#
# Disc length: 2507 seconds
#
# Revision: 0
# Processed by: cddbd v1.5.1PL0 Copyright (c) Steve Scherf et al.
# Submitted via: CDex 1.51
#
DISCID=9c09c90b
DTITLE=Mr Riff - Aint Meant To Pay
DYEAR=2004
DGENRE=Blues
TTITLE0=The Trouble With Love
TTITLE1=Cajun Stomp
TTITLE2=Testify
TTITLE3=Aint Meant To Pay
TTITLE4=Wont Sell Myself That Short
TTITLE5=Still In Love With You
TTITLE6=Half A Life
TTITLE7=Sing The Blues
TTITLE8=Deeper Hole
TTITLE9=Voodoo
TTITLE10=Under Your Skin
EXTD=YEAR: 2004
EXTT0=
EXTT1=
EXTT2=
EXTT3=
EXTT4=
EXTT5=
EXTT6=
EXTT7=
EXTT8=
EXTT9=
EXTT10=
PLAYORDER=
